<svg
  id="naiad"
  width="100%"
  xmlns="http://www.w3.org/2000/svg"
  viewBox="0 0 740 367"
  style="max-width: 740px;"
  role="graphics-document document">
  <style
    xmlns="http://www.w3.org/1999/xhtml">@import url("https://cdnjs.cloudflare.com/ajax/libs/font-awesome/6.7.2/css/all.min.css");</style>
  <defs>
    <marker
      id="journey-arrow"
      refX="9"
      refY="3.5"
      markerWidth="10"
      markerHeight="7"
      orient="auto">
      <path
        d="M0,0 L10,3.5 L0,7 Z"
        class="arrowMarkerPath"
        fill="#333" />
    </marker>
  </defs>
  <text
    x="150"
    y="40"
    text-anchor="start"
    dominant-baseline="middle"
    font-size="20px"
    font-family="Arial, sans-serif"
    font-weight="bold"
    fill="#333">Big Team Project</text>
  <circle
    cx="24"
    cy="79"
    r="7"
    fill="#66BB6A"
    stroke="#333" />
  <text
    x="40"
    y="79"
    text-anchor="start"
    dominant-baseline="middle"
    font-size="14px"
    font-family="Arial, sans-serif"
    fill="#333">PM</text>
  <circle
    cx="24"
    cy="103"
    r="7"
    fill="#42A5F5"
    stroke="#333" />
  <text
    x="40"
    y="103"
    text-anchor="start"
    dominant-baseline="middle"
    font-size="14px"
    font-family="Arial, sans-serif"
    fill="#333">Dev</text>
  <circle
    cx="24"
    cy="127"
    r="7"
    fill="#FFCA28"
    stroke="#333" />
  <text
    x="40"
    y="127"
    text-anchor="start"
    dominant-baseline="middle"
    font-size="14px"
    font-family="Arial, sans-serif"
    fill="#333">QA</text>
  <circle
    cx="24"
    cy="151"
    r="7"
    fill="#EF5350"
    stroke="#333" />
  <text
    x="40"
    y="151"
    text-anchor="start"
    dominant-baseline="middle"
    font-size="14px"
    font-family="Arial, sans-serif"
    fill="#333">Designer</text>
  <circle
    cx="24"
    cy="175"
    r="7"
    fill="#AB47BC"
    stroke="#333" />
  <text
    x="40"
    y="175"
    text-anchor="start"
    dominant-baseline="middle"
    font-size="14px"
    font-family="Arial, sans-serif"
    fill="#333">Lead</text>
  <circle
    cx="24"
    cy="199"
    r="7"
    fill="#26C6DA"
    stroke="#333" />
  <text
    x="40"
    y="199"
    text-anchor="start"
    dominant-baseline="middle"
    font-size="14px"
    font-family="Arial, sans-serif"
    fill="#333">Stakeholder</text>
  <rect
    x="150"
    y="60"
    width="150"
    height="38"
    rx="5"
    ry="5"
    fill="#DCE3F5"
    stroke="none" />
  <text
    x="225"
    y="79"
    text-anchor="middle"
    dominant-baseline="middle"
    font-size="14px"
    font-family="Arial, sans-serif"
    font-weight="bold"
    fill="#333">Kickoff</text>
  <rect
    x="150"
    y="106"
    width="150"
    height="55"
    rx="5"
    ry="5"
    fill="#FFFFFF"
    stroke="#9AA7D6"
    stroke-width="2" />
  <text
    x="225"
    y="133.5"
    text-anchor="middle"
    dominant-baseline="middle"
    font-size="13px"
    font-family="Arial, sans-serif"
    fill="#333">Initial meeting</text>
  <circle
    cx="164"
    cy="106"
    r="6"
    fill="#66BB6A"
    stroke="#333" />
  <circle
    cx="179"
    cy="106"
    r="6"
    fill="#42A5F5"
    stroke="#333" />
  <circle
    cx="194"
    cy="106"
    r="6"
    fill="#FFCA28"
    stroke="#333" />
  <circle
    cx="209"
    cy="106"
    r="6"
    fill="#EF5350"
    stroke="#333" />
  <circle
    cx="224"
    cy="106"
    r="6"
    fill="#AB47BC"
    stroke="#333" />
  <circle
    cx="239"
    cy="106"
    r="6"
    fill="#26C6DA"
    stroke="#333" />
  <line
    x1="225"
    y1="161"
    x2="225"
    y2="279"
    stroke="#999"
    stroke-dasharray="3,3" />
  <rect
    x="350"
    y="60"
    width="350"
    height="38"
    rx="5"
    ry="5"
    fill="#FBF6C6"
    stroke="none" />
  <text
    x="525"
    y="79"
    text-anchor="middle"
    dominant-baseline="middle"
    font-size="14px"
    font-family="Arial, sans-serif"
    font-weight="bold"
    fill="#333">Execution</text>
  <rect
    x="350"
    y="106"
    width="150"
    height="55"
    rx="5"
    ry="5"
    fill="#FFFFFF"
    stroke="#CFC65E"
    stroke-width="2" />
  <text
    x="425"
    y="133.5"
    text-anchor="middle"
    dominant-baseline="middle"
    font-size="13px"
    font-family="Arial, sans-serif"
    fill="#333">Development</text>
  <circle
    cx="364"
    cy="106"
    r="6"
    fill="#42A5F5"
    stroke="#333" />
  <circle
    cx="379"
    cy="106"
    r="6"
    fill="#AB47BC"
    stroke="#333" />
  <line
    x1="425"
    y1="161"
    x2="425"
    y2="317"
    stroke="#999"
    stroke-dasharray="3,3" />
  <rect
    x="550"
    y="106"
    width="150"
    height="55"
    rx="5"
    ry="5"
    fill="#FFFFFF"
    stroke="#CFC65E"
    stroke-width="2" />
  <text
    x="625"
    y="133.5"
    text-anchor="middle"
    dominant-baseline="middle"
    font-size="13px"
    font-family="Arial, sans-serif"
    fill="#333">Testing</text>
  <circle
    cx="564"
    cy="106"
    r="6"
    fill="#FFCA28"
    stroke="#333" />
  <line
    x1="625"
    y1="161"
    x2="625"
    y2="279"
    stroke="#999"
    stroke-dasharray="3,3" />
  <path
    d="M 150 196 L 725 196"
    fill="none"
    stroke="#333"
    stroke-width="3"
    marker-end="url(#journey-arrow)" />
  <circle
    cx="225"
    cy="294"
    r="15"
    fill="#F0EAD0"
    stroke="#8C8455" />
  <circle
    cx="220"
    cy="291"
    r="1.6"
    fill="#3F3F3F" />
  <circle
    cx="230"
    cy="291"
    r="1.6"
    fill="#3F3F3F" />
  <path
    d="M 219 296 Q 225 302 231 296"
    fill="none"
    stroke="#3F3F3F"
    stroke-width="1.5" />
  <circle
    cx="425"
    cy="332"
    r="15"
    fill="#F0EAD0"
    stroke="#8C8455" />
  <circle
    cx="420"
    cy="329"
    r="1.6"
    fill="#3F3F3F" />
  <circle
    cx="430"
    cy="329"
    r="1.6"
    fill="#3F3F3F" />
  <path
    d="M 419 336 L 431 336"
    fill="none"
    stroke="#3F3F3F"
    stroke-width="1.5" />
  <circle
    cx="625"
    cy="294"
    r="15"
    fill="#F0EAD0"
    stroke="#8C8455" />
  <circle
    cx="620"
    cy="291"
    r="1.6"
    fill="#3F3F3F" />
  <circle
    cx="630"
    cy="291"
    r="1.6"
    fill="#3F3F3F" />
  <path
    d="M 619 296 Q 625 302 631 296"
    fill="none"
    stroke="#3F3F3F"
    stroke-width="1.5" />
</svg>